<svg xmlns="http://www.w3.org/2000/svg" xmlns:xlink="http://www.w3.org/1999/xlink" width="135" height="31" viewBox="0 0 135 31">
    <defs>
        <path id="prefix__a" d="M0.341 0.643L12.945 0.643 12.945 30.968 0.341 30.968z"/>
        <path id="prefix__c" d="M0.849 0.439L11.496 0.439 11.496 30.834 0.849 30.834z"/>
    </defs>
    <g fill="none" fill-rule="evenodd">
        <path fill="#FFF" d="M95.911 1.278h-3.613c-.34 0-.616.277-.616.617v24.783c0 .349-.285.635-.634.635h-1.77c-.347 0-.632-.286-.632-.635v-1.465l-.001-23.318c0-.34-.275-.617-.614-.617h-3.615c-.34 0-.616.277-.616.617v25.61c0 .824-.01 1.656.41 2.4.166.293.376.557.623.783.06.055.122.106.187.157.047.036.092.071.14.104l.083.055c.327.213.692.367 1.086.448.206.042.42.065.639.065h6.391c.219 0 .432-.023.64-.065.392-.08.76-.235 1.086-.448l.08-.055c.05-.033.097-.068.142-.104.065-.05.127-.102.188-.157.246-.226.456-.49.622-.783.42-.744.411-1.576.411-2.4V1.895c0-.34-.276-.617-.617-.617M106.84 17.808v9.052c0 .236-.191.428-.427.428l-1.715-.001c-.236 0-.427-.191-.427-.427V5.7c0-.236.19-.43.427-.43h1.713c.237 0 .43.194.43.431v12.107zm3.046-16.592h-9.737c-.404 0-.73.328-.73.732v28.69c0 .475.384.86.857.86h8.105c1.672 0 3.029-1.423 3.029-3.178V2.741c0-.841-.683-1.525-1.524-1.525zM118.377 1.274h-3.363c-.41 0-.744.335-.744.747v28.726c0 .412.334.746.744.746h3.363c.412 0 .745-.334.745-.746V2.021c0-.412-.333-.747-.745-.747" transform="translate(0 -1)"/>
        <g transform="translate(0 -1) translate(121.603 .594)">
            <mask id="prefix__b" fill="#fff">
                <use xlink:href="#prefix__a"/>
            </mask>
            <path fill="#FFF" d="M8.23 26.118c0 .29-.235.524-.522.524l-2.13.027c-.288 0-.522-.234-.522-.524V5.493c0-.29.234-.524.522-.524l2.13-.027c.287 0 .522.235.522.524v20.652zM10.31.643L2.976.671C1.521.671.341 1.853.341 3.311v25.017c0 1.458 1.18 2.64 2.635 2.64l7.334-.028c1.455 0 2.635-1.182 2.635-2.64V3.283c0-1.458-1.18-2.64-2.635-2.64z" mask="url(#prefix__b)"/>
        </g>
        <path fill="#FFF" d="M80.953 1.047H70.741c-.328 0-.592.265-.592.594v3.658c0 .327.264.593.592.593h2.182c.327 0 .592.265.592.593v24.35c0 .327.266.593.592.593h3.48c.327 0 .592-.266.592-.593V6.485c0-.328.265-.593.592-.593h2.182c.327 0 .593-.266.593-.593V1.641c0-.329-.266-.594-.593-.594M60.611 10.277c-.151-.213-.235-.47-.235-.732V5.584c0-.238.189-.43.422-.43h2.534c.232 0 .42.192.42.43v3.043c0 .237.188.43.42.43h3.262c.233 0 .455-.193.455-.43V2.608c0-.848-.672-1.535-1.499-1.535h-7.8c-1.379 0-2.497 1.146-2.497 2.558v7.519c0 .259.08.513.23.725L63.47 22.05c.155.221.236.486.23.754l-.095 4.22c0 .238-.188.431-.42.431H60.65c-.232 0-.42-.193-.42-.431V23.98c0-.239-.189-.43-.42-.43h-3.263c-.232 0-.454.191-.454.43V30c0 .847.671 1.534 1.498 1.534h7.8c1.38 0 2.498-1.145 2.498-2.557l.125-7.885c.004-.27-.08-.533-.235-.753L60.61 10.277zM32.26 1.288h-3.364c-.41 0-.743.333-.743.745v28.728c0 .412.333.745.743.745h3.363c.412 0 .745-.333.745-.745V2.033c0-.412-.333-.745-.745-.745M10.805 1.04H.593c-.328 0-.593.265-.593.593v3.658c0 .328.265.593.593.593h2.181c.327 0 .593.265.593.594v24.35c0 .327.265.592.591.592h3.48c.327 0 .593-.265.593-.593V6.477c0-.328.264-.593.592-.593h2.182c.327 0 .592-.265.592-.593V1.633c0-.328-.265-.593-.592-.593" transform="translate(0 -1)"/>
        <g transform="translate(0 -1) translate(35.038 .594)">
            <mask id="prefix__d" fill="#fff">
                <use xlink:href="#prefix__c"/>
            </mask>
            <path fill="#FFF" d="M10.788.438H1.557c-.39 0-.708.318-.708.71v3.045c0 .39.317.709.708.709h4.401c.469 0 .808.447.682.898L.876 26.496c-.018.062-.027.126-.027.19v3.439c0 .392.317.71.708.71h9.17c.392 0 .708-.318.708-.71V27.08c0-.391-.316-.708-.708-.708H6.054c-.474 0-.813-.458-.678-.912L11.466 5c.02-.065.03-.133.03-.202v-3.65c0-.392-.317-.71-.708-.71" mask="url(#prefix__d)"/>
        </g>
        <path fill="#FFF" d="M18.205 5.57c0-.236.192-.428.427-.428h1.714c.237 0 .428.193.428.43v9.124h-2.569V5.57zm5.616-4.482h-9.738c-.404 0-.73.328-.73.732v28.69c0 .475.384.859.857.859h3.12c.483 0 .875-.393.875-.877V18.876h2.57v11.753c0 .409.33.74.74.74h3.09c.407 0 .739-.331.739-.74V18.75c0-1.033-.795-1.933-1.824-1.965l-.058.002v-.005c1.039 0 1.882-.841 1.882-1.883V2.613c0-.842-.681-1.525-1.523-1.525z" transform="translate(0 -1)"/>
    </g>
</svg>
